<?xml version="1.0" standalone="no"?>
<!DOCTYPE svg PUBLIC "-//W3C//DTD SVG 20010904//EN"
 "http://www.w3.org/TR/2001/REC-SVG-20010904/DTD/svg10.dtd">
<svg version="1.0" xmlns="http://www.w3.org/2000/svg"
 width="1024.000000pt" height="1024.000000pt" viewBox="0 0 1024.000000 1024.000000"
 preserveAspectRatio="xMidYMid meet">

<g transform="translate(0.000000,1024.000000) scale(0.100000,-0.100000)"
fill="#000000" stroke="none">
<path d="M2105 8040 c-783 -4 -873 -7 -900 -21 -36 -20 -57 -43 -79 -86 -15
-29 -16 -272 -16 -2852 0 -1973 3 -2828 11 -2848 14 -38 46 -71 91 -94 36 -18
91 -19 2029 -19 1839 0 1994 1 2026 17 82 38 96 139 29 200 l-36 33 -1950 0
-1950 0 0 2710 0 2710 2030 0 2030 0 0 -415 c0 -458 -1 -452 62 -497 l33 -23
413 -3 412 -3 0 -675 c0 -719 0 -714 49 -758 12 -11 41 -21 69 -24 41 -3 52 0
79 22 17 14 36 38 42 53 8 21 11 231 9 788 l-3 760 -27 45 c-15 25 -228 246
-490 505 -393 391 -469 463 -504 473 -43 13 -1489 13 -3459 2z m4065 -937 c0
-2 -115 -3 -255 -3 l-255 0 0 256 0 256 255 -253 c140 -139 255 -254 255 -256z"/>
<path d="M7064 7266 c-42 -18 -76 -69 -82 -121 -7 -66 25 -114 107 -162 195
-113 458 -354 608 -557 74 -100 269 -405 261 -410 -2 -1 -34 -15 -71 -30 -37
-16 -74 -38 -82 -49 -23 -33 -19 -100 8 -124 12 -12 118 -69 235 -127 238
-118 267 -125 321 -81 16 14 37 45 45 68 35 93 136 441 136 468 0 15 -11 40
-24 56 -34 39 -79 35 -190 -16 -49 -23 -95 -40 -101 -38 -6 3 -42 58 -80 123
-240 414 -477 682 -785 894 -171 117 -232 138 -306 106z"/>
<path d="M4235 6944 c-441 -28 -825 -173 -1145 -431 -103 -83 -280 -268 -369
-386 l-74 -97 -31 21 c-95 63 -149 69 -186 22 -26 -33 -25 -62 5 -285 30 -215
30 -215 63 -250 20 -22 35 -28 69 -28 36 0 76 18 231 100 103 56 195 110 205
122 21 25 22 76 1 106 -8 12 -33 31 -55 42 -21 11 -39 24 -39 28 0 17 178 218
259 293 243 223 544 374 861 431 152 26 418 28 570 3 353 -58 681 -225 930
-475 187 -186 309 -385 395 -645 45 -135 55 -152 111 -177 96 -42 194 25 194
131 0 58 -71 267 -134 396 -253 515 -762 907 -1341 1034 -143 31 -393 53 -520
45z"/>
<path d="M3899 5930 c-43 -23 -92 -78 -306 -346 -89 -111 -168 -204 -176 -207
-7 -3 -61 -8 -118 -12 -144 -9 -196 -25 -257 -80 -85 -77 -92 -99 -98 -341 -5
-190 -4 -212 13 -243 31 -59 62 -74 162 -79 l89 -4 21 -38 c27 -49 98 -113
158 -143 174 -89 376 -37 494 126 l28 38 362 -1 362 0 63 -69 c72 -77 146
-117 245 -131 73 -11 174 4 209 29 14 10 87 105 163 210 l137 192 0 230 0 231
-137 271 c-151 297 -190 351 -269 375 -30 9 -183 12 -575 12 -507 -1 -536 -2
-570 -20z m1076 -196 c9 -9 56 -97 106 -195 l89 -179 -735 0 c-404 0 -735 2
-735 5 0 14 296 368 314 375 12 5 229 9 483 9 414 1 463 -1 478 -15z m-1327
-791 c71 -34 115 -131 92 -205 -27 -91 -89 -138 -180 -138 -178 0 -256 218
-116 325 61 47 130 53 204 18z m1442 -7 c139 -92 83 -315 -84 -333 -121 -14
-213 75 -204 198 5 67 37 117 96 149 53 29 136 23 192 -14z"/>
<path d="M5925 4860 c-28 -4 -73 -19 -100 -33 -81 -41 -80 -39 -452 -568 l-75
-106 -82 -7 c-44 -4 -103 -14 -130 -23 -63 -20 -137 -92 -154 -149 -16 -54
-17 -651 -1 -708 14 -51 91 -128 145 -144 23 -7 98 -12 170 -12 l129 0 33 -71
c115 -244 431 -350 682 -227 87 42 197 152 231 230 l24 58 531 0 530 0 30 -62
c56 -120 190 -227 329 -264 67 -18 187 -17 260 1 142 37 278 151 336 282 l19
41 183 4 c200 4 230 12 288 75 63 67 64 72 64 374 l0 275 -30 60 c-33 64 -95
115 -163 134 -21 5 -194 35 -387 66 -192 31 -360 61 -372 67 -12 7 -155 153
-318 325 -163 172 -313 323 -333 337 -85 56 -74 55 -731 54 -333 -1 -629 -5
-656 -9z m1235 -274 c14 -8 115 -110 226 -228 l201 -213 -494 -3 c-272 -1
-715 -1 -983 0 l-489 3 135 195 c74 107 146 206 160 220 l24 25 283 5 c607 12
910 10 937 -4z m-1184 -1094 c168 -86 179 -328 20 -427 -67 -41 -171 -48 -237
-15 -99 50 -143 119 -144 225 0 59 4 78 28 117 31 53 79 93 134 114 51 19 148
12 199 -14z m2030 0 c157 -80 187 -288 58 -402 -52 -45 -99 -62 -169 -62 -101
0 -176 46 -221 134 -70 137 2 299 156 349 40 13 133 3 176 -19z"/>
<path d="M2074 4216 c-28 -28 -34 -42 -34 -76 0 -46 21 -89 54 -111 27 -18
709 -27 768 -9 103 30 121 167 28 215 -24 13 -91 15 -406 15 l-376 0 -34 -34z"/>
<path d="M2074 3746 c-28 -28 -34 -42 -34 -75 0 -60 22 -96 70 -115 36 -14
132 -16 931 -16 733 0 895 2 923 14 49 20 76 60 76 113 0 38 -5 50 -34 79
l-34 34 -932 0 -932 0 -34 -34z"/>
<path d="M2091 3296 c-33 -18 -50 -53 -51 -104 0 -37 6 -50 34 -78 l34 -34
937 2 937 3 29 33 c46 52 37 134 -21 179 -23 19 -1865 18 -1899 -1z"/>
<path d="M6980 2443 c-8 -3 -64 -39 -125 -78 -279 -184 -581 -294 -915 -335
-108 -13 -170 -13 -170 0 0 39 -23 211 -31 238 -12 37 -60 72 -97 72 -47 0
-101 -43 -269 -212 -181 -183 -194 -203 -178 -276 9 -41 25 -54 240 -187 267
-166 276 -170 334 -140 43 22 54 61 46 155 l-7 80 54 0 c75 0 265 25 375 49
228 50 508 168 700 294 192 127 235 185 197 263 -31 63 -100 97 -154 77z"/>
</g>
</svg>
