<?xml version="1.0" standalone="no"?>
<!DOCTYPE svg PUBLIC "-//W3C//DTD SVG 20010904//EN"
 "http://www.w3.org/TR/2001/REC-SVG-20010904/DTD/svg10.dtd">
<svg version="1.0" xmlns="http://www.w3.org/2000/svg"
 width="512.000000pt" height="512.000000pt" viewBox="0 0 512.000000 512.000000"
 preserveAspectRatio="xMidYMid meet">

<g transform="translate(0.000000,512.000000) scale(0.100000,-0.100000)"
fill="#000000" stroke="none">
<path d="M2495 5019 c-313 -25 -601 -107 -900 -254 -749 -369 -1262 -1102
-1355 -1935 -14 -123 -14 -418 0 -540 33 -290 107 -542 240 -815 122 -250 267
-453 470 -655 639 -639 1549 -876 2422 -630 321 90 635 257 898 476 221 184
407 405 568 675 l22 37 -237 128 c-130 71 -239 128 -242 128 -3 -1 -32 -45
-65 -97 -86 -135 -170 -238 -288 -354 -722 -701 -1848 -727 -2610 -59 -179
157 -329 353 -443 581 -138 277 -205 555 -205 855 0 300 67 578 205 855 154
308 368 551 650 740 696 466 1613 427 2264 -94 47 -38 111 -95 141 -125 l54
-56 -302 0 -302 0 0 -270 0 -270 710 0 710 0 0 705 0 705 -275 0 -275 0 0
-180 c0 -99 -4 -180 -8 -180 -5 0 -17 9 -28 21 -77 85 -351 267 -549 365 -385
189 -847 278 -1270 243z"/>
</g>
</svg>
